<mxfile host="app.diagrams.net" modified="2024-05-17T13:52:07.623Z" agent="Mozilla/5.0 (Windows NT 10.0; Win64; x64) AppleWebKit/537.36 (KHTML, like Gecko) Chrome/124.0.0.0 Safari/537.36" etag="byMWKgPNoh2ApFDTgRfH" version="24.4.3" type="device">
  <diagram id="C5RBs43oDa-KdzZeNtuy" name="Page-1">
    <mxGraphModel dx="1674" dy="772" grid="1" gridSize="10" guides="1" tooltips="1" connect="1" arrows="1" fold="1" page="1" pageScale="1" pageWidth="827" pageHeight="1169" math="0" shadow="0">
      <root>
        <mxCell id="WIyWlLk6GJQsqaUBKTNV-0" />
        <mxCell id="WIyWlLk6GJQsqaUBKTNV-1" parent="WIyWlLk6GJQsqaUBKTNV-0" />
        <mxCell id="WIyWlLk6GJQsqaUBKTNV-3" value="User goes to profile page" style="rounded=1;whiteSpace=wrap;html=1;fontSize=12;glass=0;strokeWidth=1;shadow=0;" parent="WIyWlLk6GJQsqaUBKTNV-1" vertex="1">
          <mxGeometry x="394" y="140" width="120" height="40" as="geometry" />
        </mxCell>
        <mxCell id="G0NHZUbW1r4EHOkkA9tb-1" value="" style="ellipse;whiteSpace=wrap;html=1;fillColor=#000000;" vertex="1" parent="WIyWlLk6GJQsqaUBKTNV-1">
          <mxGeometry x="424" y="10" width="60" height="60" as="geometry" />
        </mxCell>
        <mxCell id="G0NHZUbW1r4EHOkkA9tb-2" value="Code" style="rounded=0;whiteSpace=wrap;html=1;" vertex="1" parent="WIyWlLk6GJQsqaUBKTNV-1">
          <mxGeometry x="169" y="630" width="90" height="40" as="geometry" />
        </mxCell>
        <mxCell id="G0NHZUbW1r4EHOkkA9tb-6" value="" style="endArrow=open;endFill=1;endSize=12;html=1;rounded=0;exitX=0.5;exitY=1;exitDx=0;exitDy=0;" edge="1" parent="WIyWlLk6GJQsqaUBKTNV-1" source="G0NHZUbW1r4EHOkkA9tb-1">
          <mxGeometry width="160" relative="1" as="geometry">
            <mxPoint x="184" y="220" as="sourcePoint" />
            <mxPoint x="454" y="140" as="targetPoint" />
          </mxGeometry>
        </mxCell>
        <mxCell id="G0NHZUbW1r4EHOkkA9tb-7" value="User presses &quot;Change password&quot;" style="rounded=1;whiteSpace=wrap;html=1;fontSize=12;glass=0;strokeWidth=1;shadow=0;" vertex="1" parent="WIyWlLk6GJQsqaUBKTNV-1">
          <mxGeometry x="394" y="240" width="120" height="40" as="geometry" />
        </mxCell>
        <mxCell id="G0NHZUbW1r4EHOkkA9tb-8" value="" style="endArrow=open;endFill=1;endSize=12;html=1;rounded=0;exitX=0.5;exitY=1;exitDx=0;exitDy=0;entryX=0.5;entryY=0;entryDx=0;entryDy=0;" edge="1" parent="WIyWlLk6GJQsqaUBKTNV-1" source="WIyWlLk6GJQsqaUBKTNV-3" target="G0NHZUbW1r4EHOkkA9tb-7">
          <mxGeometry width="160" relative="1" as="geometry">
            <mxPoint x="454" y="240" as="sourcePoint" />
            <mxPoint x="454" y="230" as="targetPoint" />
          </mxGeometry>
        </mxCell>
        <mxCell id="G0NHZUbW1r4EHOkkA9tb-10" value="" style="rhombus;whiteSpace=wrap;html=1;shadow=0;fontFamily=Helvetica;fontSize=12;align=center;strokeWidth=1;spacing=6;spacingTop=-4;" vertex="1" parent="WIyWlLk6GJQsqaUBKTNV-1">
          <mxGeometry x="419" y="335" width="70" height="70" as="geometry" />
        </mxCell>
        <mxCell id="G0NHZUbW1r4EHOkkA9tb-11" value="" style="endArrow=open;endFill=1;endSize=12;html=1;rounded=0;exitX=0.5;exitY=1;exitDx=0;exitDy=0;entryX=0.5;entryY=0;entryDx=0;entryDy=0;" edge="1" parent="WIyWlLk6GJQsqaUBKTNV-1" source="G0NHZUbW1r4EHOkkA9tb-37" target="G0NHZUbW1r4EHOkkA9tb-38">
          <mxGeometry width="160" relative="1" as="geometry">
            <mxPoint x="539" y="1080" as="sourcePoint" />
            <mxPoint x="539" y="1140" as="targetPoint" />
          </mxGeometry>
        </mxCell>
        <mxCell id="G0NHZUbW1r4EHOkkA9tb-12" value="" style="endArrow=open;endFill=1;endSize=12;html=1;rounded=0;exitX=0.5;exitY=1;exitDx=0;exitDy=0;entryX=0.5;entryY=0;entryDx=0;entryDy=0;" edge="1" parent="WIyWlLk6GJQsqaUBKTNV-1" source="G0NHZUbW1r4EHOkkA9tb-7" target="G0NHZUbW1r4EHOkkA9tb-10">
          <mxGeometry width="160" relative="1" as="geometry">
            <mxPoint x="464" y="310" as="sourcePoint" />
            <mxPoint x="464" y="370" as="targetPoint" />
          </mxGeometry>
        </mxCell>
        <mxCell id="G0NHZUbW1r4EHOkkA9tb-13" value="" style="endArrow=open;endFill=1;endSize=12;html=1;rounded=0;exitX=0.5;exitY=1;exitDx=0;exitDy=0;entryX=0.5;entryY=0;entryDx=0;entryDy=0;" edge="1" parent="WIyWlLk6GJQsqaUBKTNV-1" source="G0NHZUbW1r4EHOkkA9tb-10" target="G0NHZUbW1r4EHOkkA9tb-80">
          <mxGeometry width="160" relative="1" as="geometry">
            <mxPoint x="453.5" y="420" as="sourcePoint" />
            <mxPoint x="454" y="470" as="targetPoint" />
          </mxGeometry>
        </mxCell>
        <mxCell id="G0NHZUbW1r4EHOkkA9tb-14" value="" style="endArrow=open;endFill=1;endSize=12;html=1;rounded=0;exitX=0;exitY=0.5;exitDx=0;exitDy=0;entryX=0.5;entryY=0;entryDx=0;entryDy=0;" edge="1" parent="WIyWlLk6GJQsqaUBKTNV-1" source="G0NHZUbW1r4EHOkkA9tb-10" target="G0NHZUbW1r4EHOkkA9tb-19">
          <mxGeometry width="160" relative="1" as="geometry">
            <mxPoint x="294" y="300" as="sourcePoint" />
            <mxPoint x="134" y="430" as="targetPoint" />
            <Array as="points">
              <mxPoint x="214" y="370" />
            </Array>
          </mxGeometry>
        </mxCell>
        <mxCell id="G0NHZUbW1r4EHOkkA9tb-15" value="&lt;font style=&quot;font-size: 11px;&quot;&gt;[user remembers his password]&lt;/font&gt;" style="text;html=1;align=center;verticalAlign=middle;whiteSpace=wrap;rounded=0;" vertex="1" parent="WIyWlLk6GJQsqaUBKTNV-1">
          <mxGeometry x="369" y="400" width="170" height="50" as="geometry" />
        </mxCell>
        <mxCell id="G0NHZUbW1r4EHOkkA9tb-16" value="&lt;font style=&quot;font-size: 11px;&quot;&gt;[user doesn&#39;t remember his password]&lt;/font&gt;" style="text;html=1;align=center;verticalAlign=middle;whiteSpace=wrap;rounded=0;" vertex="1" parent="WIyWlLk6GJQsqaUBKTNV-1">
          <mxGeometry x="219" y="335" width="205" height="35" as="geometry" />
        </mxCell>
        <mxCell id="G0NHZUbW1r4EHOkkA9tb-18" value="Send the code to email&amp;nbsp;" style="rounded=1;whiteSpace=wrap;html=1;fontSize=12;glass=0;strokeWidth=1;shadow=0;" vertex="1" parent="WIyWlLk6GJQsqaUBKTNV-1">
          <mxGeometry x="154" y="530" width="120" height="40" as="geometry" />
        </mxCell>
        <mxCell id="G0NHZUbW1r4EHOkkA9tb-19" value="User presses &quot;Forgot password&quot;" style="rounded=1;whiteSpace=wrap;html=1;fontSize=12;glass=0;strokeWidth=1;shadow=0;" vertex="1" parent="WIyWlLk6GJQsqaUBKTNV-1">
          <mxGeometry x="154" y="430" width="120" height="40" as="geometry" />
        </mxCell>
        <mxCell id="G0NHZUbW1r4EHOkkA9tb-20" value="" style="endArrow=open;endFill=1;endSize=12;html=1;rounded=0;exitX=0.5;exitY=1;exitDx=0;exitDy=0;entryX=0.5;entryY=0;entryDx=0;entryDy=0;" edge="1" parent="WIyWlLk6GJQsqaUBKTNV-1" source="G0NHZUbW1r4EHOkkA9tb-19" target="G0NHZUbW1r4EHOkkA9tb-18">
          <mxGeometry width="160" relative="1" as="geometry">
            <mxPoint x="344" y="510" as="sourcePoint" />
            <mxPoint x="344" y="570" as="targetPoint" />
          </mxGeometry>
        </mxCell>
        <mxCell id="G0NHZUbW1r4EHOkkA9tb-22" value="" style="endArrow=open;endFill=1;endSize=12;html=1;rounded=0;exitX=0.5;exitY=1;exitDx=0;exitDy=0;entryX=0.5;entryY=0;entryDx=0;entryDy=0;" edge="1" parent="WIyWlLk6GJQsqaUBKTNV-1" source="G0NHZUbW1r4EHOkkA9tb-18" target="G0NHZUbW1r4EHOkkA9tb-2">
          <mxGeometry width="160" relative="1" as="geometry">
            <mxPoint x="269" y="620" as="sourcePoint" />
            <mxPoint x="214" y="630" as="targetPoint" />
          </mxGeometry>
        </mxCell>
        <mxCell id="G0NHZUbW1r4EHOkkA9tb-23" value="" style="rhombus;whiteSpace=wrap;html=1;shadow=0;fontFamily=Helvetica;fontSize=12;align=center;strokeWidth=1;spacing=6;spacingTop=-4;" vertex="1" parent="WIyWlLk6GJQsqaUBKTNV-1">
          <mxGeometry x="179" y="730" width="70" height="70" as="geometry" />
        </mxCell>
        <mxCell id="G0NHZUbW1r4EHOkkA9tb-24" value="" style="endArrow=open;endFill=1;endSize=12;html=1;rounded=0;exitX=0.5;exitY=1;exitDx=0;exitDy=0;entryX=0.5;entryY=0;entryDx=0;entryDy=0;" edge="1" parent="WIyWlLk6GJQsqaUBKTNV-1" source="G0NHZUbW1r4EHOkkA9tb-2" target="G0NHZUbW1r4EHOkkA9tb-23">
          <mxGeometry width="160" relative="1" as="geometry">
            <mxPoint x="314" y="710" as="sourcePoint" />
            <mxPoint x="314" y="770" as="targetPoint" />
          </mxGeometry>
        </mxCell>
        <mxCell id="G0NHZUbW1r4EHOkkA9tb-26" value="" style="endArrow=open;endFill=1;endSize=12;html=1;rounded=0;exitX=0.5;exitY=1;exitDx=0;exitDy=0;entryX=0.5;entryY=0;entryDx=0;entryDy=0;" edge="1" parent="WIyWlLk6GJQsqaUBKTNV-1" source="G0NHZUbW1r4EHOkkA9tb-23" target="G0NHZUbW1r4EHOkkA9tb-30">
          <mxGeometry width="160" relative="1" as="geometry">
            <mxPoint x="224" y="830" as="sourcePoint" />
            <mxPoint x="214" y="880" as="targetPoint" />
          </mxGeometry>
        </mxCell>
        <mxCell id="G0NHZUbW1r4EHOkkA9tb-27" value="" style="endArrow=open;endFill=1;endSize=12;html=1;rounded=0;exitX=0;exitY=0.5;exitDx=0;exitDy=0;entryX=0;entryY=0.5;entryDx=0;entryDy=0;" edge="1" parent="WIyWlLk6GJQsqaUBKTNV-1" source="G0NHZUbW1r4EHOkkA9tb-23" target="G0NHZUbW1r4EHOkkA9tb-19">
          <mxGeometry width="160" relative="1" as="geometry">
            <mxPoint x="334" y="810" as="sourcePoint" />
            <mxPoint x="14" y="765" as="targetPoint" />
            <Array as="points">
              <mxPoint x="14" y="765" />
              <mxPoint x="14" y="450" />
            </Array>
          </mxGeometry>
        </mxCell>
        <mxCell id="G0NHZUbW1r4EHOkkA9tb-28" value="&lt;font style=&quot;font-size: 11px;&quot;&gt;[user got code]&lt;/font&gt;" style="text;html=1;align=center;verticalAlign=middle;whiteSpace=wrap;rounded=0;" vertex="1" parent="WIyWlLk6GJQsqaUBKTNV-1">
          <mxGeometry x="111.5" y="800" width="205" height="50" as="geometry" />
        </mxCell>
        <mxCell id="G0NHZUbW1r4EHOkkA9tb-29" value="&lt;font style=&quot;font-size: 11px;&quot;&gt;[user didn&#39;t get code]&lt;/font&gt;" style="text;html=1;align=center;verticalAlign=middle;whiteSpace=wrap;rounded=0;" vertex="1" parent="WIyWlLk6GJQsqaUBKTNV-1">
          <mxGeometry x="49" y="720" width="105" height="50" as="geometry" />
        </mxCell>
        <mxCell id="G0NHZUbW1r4EHOkkA9tb-30" value="User enters code" style="rounded=1;whiteSpace=wrap;html=1;fontSize=12;glass=0;strokeWidth=1;shadow=0;" vertex="1" parent="WIyWlLk6GJQsqaUBKTNV-1">
          <mxGeometry x="154" y="880" width="120" height="40" as="geometry" />
        </mxCell>
        <mxCell id="G0NHZUbW1r4EHOkkA9tb-31" value="" style="rhombus;whiteSpace=wrap;html=1;shadow=0;fontFamily=Helvetica;fontSize=12;align=center;strokeWidth=1;spacing=6;spacingTop=-4;" vertex="1" parent="WIyWlLk6GJQsqaUBKTNV-1">
          <mxGeometry x="179" y="990" width="70" height="70" as="geometry" />
        </mxCell>
        <mxCell id="G0NHZUbW1r4EHOkkA9tb-32" value="" style="endArrow=open;endFill=1;endSize=12;html=1;rounded=0;exitX=0.5;exitY=1;exitDx=0;exitDy=0;entryX=0.5;entryY=0;entryDx=0;entryDy=0;" edge="1" parent="WIyWlLk6GJQsqaUBKTNV-1" source="G0NHZUbW1r4EHOkkA9tb-30" target="G0NHZUbW1r4EHOkkA9tb-31">
          <mxGeometry width="160" relative="1" as="geometry">
            <mxPoint x="259" y="990" as="sourcePoint" />
            <mxPoint x="214" y="990" as="targetPoint" />
          </mxGeometry>
        </mxCell>
        <mxCell id="G0NHZUbW1r4EHOkkA9tb-33" value="&lt;font style=&quot;font-size: 11px;&quot;&gt;[code is right]&lt;/font&gt;" style="text;html=1;align=center;verticalAlign=middle;whiteSpace=wrap;rounded=0;" vertex="1" parent="WIyWlLk6GJQsqaUBKTNV-1">
          <mxGeometry x="244" y="995" width="95" height="40" as="geometry" />
        </mxCell>
        <mxCell id="G0NHZUbW1r4EHOkkA9tb-34" value="" style="endArrow=open;endFill=1;endSize=12;html=1;rounded=0;exitX=1;exitY=0.5;exitDx=0;exitDy=0;entryX=0;entryY=0.5;entryDx=0;entryDy=0;" edge="1" parent="WIyWlLk6GJQsqaUBKTNV-1" source="G0NHZUbW1r4EHOkkA9tb-31" target="G0NHZUbW1r4EHOkkA9tb-37">
          <mxGeometry width="160" relative="1" as="geometry">
            <mxPoint x="304" y="1020" as="sourcePoint" />
            <mxPoint x="274" y="1025" as="targetPoint" />
          </mxGeometry>
        </mxCell>
        <mxCell id="G0NHZUbW1r4EHOkkA9tb-35" value="" style="endArrow=open;endFill=1;endSize=12;html=1;rounded=0;exitX=0;exitY=0.5;exitDx=0;exitDy=0;entryX=0;entryY=0.5;entryDx=0;entryDy=0;" edge="1" parent="WIyWlLk6GJQsqaUBKTNV-1" source="G0NHZUbW1r4EHOkkA9tb-31" target="G0NHZUbW1r4EHOkkA9tb-30">
          <mxGeometry width="160" relative="1" as="geometry">
            <mxPoint x="49" y="1050" as="sourcePoint" />
            <mxPoint x="49" y="1120" as="targetPoint" />
            <Array as="points">
              <mxPoint x="44" y="1025" />
              <mxPoint x="44" y="900" />
            </Array>
          </mxGeometry>
        </mxCell>
        <mxCell id="G0NHZUbW1r4EHOkkA9tb-36" value="&lt;font style=&quot;font-size: 11px;&quot;&gt;[code is wrong]&lt;/font&gt;" style="text;html=1;align=center;verticalAlign=middle;whiteSpace=wrap;rounded=0;" vertex="1" parent="WIyWlLk6GJQsqaUBKTNV-1">
          <mxGeometry x="74" y="995" width="95" height="40" as="geometry" />
        </mxCell>
        <mxCell id="G0NHZUbW1r4EHOkkA9tb-37" value="User enters new password" style="rounded=1;whiteSpace=wrap;html=1;fontSize=12;glass=0;strokeWidth=1;shadow=0;" vertex="1" parent="WIyWlLk6GJQsqaUBKTNV-1">
          <mxGeometry x="394" y="1005" width="120" height="40" as="geometry" />
        </mxCell>
        <mxCell id="G0NHZUbW1r4EHOkkA9tb-38" value="" style="rhombus;whiteSpace=wrap;html=1;shadow=0;fontFamily=Helvetica;fontSize=12;align=center;strokeWidth=1;spacing=6;spacingTop=-4;" vertex="1" parent="WIyWlLk6GJQsqaUBKTNV-1">
          <mxGeometry x="419" y="1120" width="70" height="70" as="geometry" />
        </mxCell>
        <mxCell id="G0NHZUbW1r4EHOkkA9tb-39" value="" style="endArrow=open;endFill=1;endSize=12;html=1;rounded=0;exitX=0.5;exitY=1;exitDx=0;exitDy=0;entryX=0.5;entryY=0;entryDx=0;entryDy=0;" edge="1" parent="WIyWlLk6GJQsqaUBKTNV-1" source="G0NHZUbW1r4EHOkkA9tb-56" target="G0NHZUbW1r4EHOkkA9tb-57">
          <mxGeometry width="160" relative="1" as="geometry">
            <mxPoint x="684" y="1660" as="sourcePoint" />
            <mxPoint x="684" y="1735" as="targetPoint" />
          </mxGeometry>
        </mxCell>
        <mxCell id="G0NHZUbW1r4EHOkkA9tb-40" value="" style="endArrow=open;endFill=1;endSize=12;html=1;rounded=0;exitX=0.5;exitY=1;exitDx=0;exitDy=0;entryX=0.5;entryY=0;entryDx=0;entryDy=0;" edge="1" parent="WIyWlLk6GJQsqaUBKTNV-1" source="G0NHZUbW1r4EHOkkA9tb-38" target="G0NHZUbW1r4EHOkkA9tb-52">
          <mxGeometry width="160" relative="1" as="geometry">
            <mxPoint x="478" y="1240" as="sourcePoint" />
            <mxPoint x="454" y="1270" as="targetPoint" />
          </mxGeometry>
        </mxCell>
        <mxCell id="G0NHZUbW1r4EHOkkA9tb-42" value="&lt;font style=&quot;font-size: 11px;&quot;&gt;[user is sure he entered everything right]&lt;/font&gt;" style="text;html=1;align=center;verticalAlign=middle;whiteSpace=wrap;rounded=0;" vertex="1" parent="WIyWlLk6GJQsqaUBKTNV-1">
          <mxGeometry x="339" y="1200" width="230" height="40" as="geometry" />
        </mxCell>
        <mxCell id="G0NHZUbW1r4EHOkkA9tb-43" value="" style="endArrow=open;endFill=1;endSize=12;html=1;rounded=0;exitX=0;exitY=0.5;exitDx=0;exitDy=0;entryX=0.5;entryY=0;entryDx=0;entryDy=0;" edge="1" parent="WIyWlLk6GJQsqaUBKTNV-1" source="G0NHZUbW1r4EHOkkA9tb-38" target="G0NHZUbW1r4EHOkkA9tb-45">
          <mxGeometry width="160" relative="1" as="geometry">
            <mxPoint x="14" y="1165" as="sourcePoint" />
            <mxPoint x="154" y="1155" as="targetPoint" />
            <Array as="points">
              <mxPoint x="159" y="1155" />
            </Array>
          </mxGeometry>
        </mxCell>
        <mxCell id="G0NHZUbW1r4EHOkkA9tb-44" value="&lt;font style=&quot;font-size: 11px;&quot;&gt;[user is not sure he entered everything right]&lt;/font&gt;" style="text;html=1;align=center;verticalAlign=middle;whiteSpace=wrap;rounded=0;" vertex="1" parent="WIyWlLk6GJQsqaUBKTNV-1">
          <mxGeometry x="169" y="1120" width="230" height="40" as="geometry" />
        </mxCell>
        <mxCell id="G0NHZUbW1r4EHOkkA9tb-45" value="User press an eye button to see the password" style="rounded=1;whiteSpace=wrap;html=1;fontSize=12;glass=0;strokeWidth=1;shadow=0;" vertex="1" parent="WIyWlLk6GJQsqaUBKTNV-1">
          <mxGeometry x="99" y="1220" width="120" height="40" as="geometry" />
        </mxCell>
        <mxCell id="G0NHZUbW1r4EHOkkA9tb-46" value="" style="rhombus;whiteSpace=wrap;html=1;shadow=0;fontFamily=Helvetica;fontSize=12;align=center;strokeWidth=1;spacing=6;spacingTop=-4;" vertex="1" parent="WIyWlLk6GJQsqaUBKTNV-1">
          <mxGeometry x="419" y="1440" width="70" height="70" as="geometry" />
        </mxCell>
        <mxCell id="G0NHZUbW1r4EHOkkA9tb-47" value="" style="endArrow=open;endFill=1;endSize=12;html=1;rounded=0;exitX=0.5;exitY=1;exitDx=0;exitDy=0;entryX=0.5;entryY=0;entryDx=0;entryDy=0;" edge="1" parent="WIyWlLk6GJQsqaUBKTNV-1" source="G0NHZUbW1r4EHOkkA9tb-46" target="G0NHZUbW1r4EHOkkA9tb-56">
          <mxGeometry width="160" relative="1" as="geometry">
            <mxPoint x="478" y="1560" as="sourcePoint" />
            <mxPoint x="454" y="1590" as="targetPoint" />
          </mxGeometry>
        </mxCell>
        <mxCell id="G0NHZUbW1r4EHOkkA9tb-48" value="&lt;font style=&quot;font-size: 11px;&quot;&gt;[user is sure he entered everything right]&lt;/font&gt;" style="text;html=1;align=center;verticalAlign=middle;whiteSpace=wrap;rounded=0;" vertex="1" parent="WIyWlLk6GJQsqaUBKTNV-1">
          <mxGeometry x="339" y="1520" width="230" height="40" as="geometry" />
        </mxCell>
        <mxCell id="G0NHZUbW1r4EHOkkA9tb-49" value="" style="endArrow=open;endFill=1;endSize=12;html=1;rounded=0;exitX=0;exitY=0.5;exitDx=0;exitDy=0;entryX=0.5;entryY=0;entryDx=0;entryDy=0;" edge="1" parent="WIyWlLk6GJQsqaUBKTNV-1" source="G0NHZUbW1r4EHOkkA9tb-46" target="G0NHZUbW1r4EHOkkA9tb-51">
          <mxGeometry width="160" relative="1" as="geometry">
            <mxPoint x="14" y="1485" as="sourcePoint" />
            <mxPoint x="154" y="1475" as="targetPoint" />
            <Array as="points">
              <mxPoint x="159" y="1475" />
            </Array>
          </mxGeometry>
        </mxCell>
        <mxCell id="G0NHZUbW1r4EHOkkA9tb-50" value="&lt;font style=&quot;font-size: 11px;&quot;&gt;[user is not sure he entered everything right]&lt;/font&gt;" style="text;html=1;align=center;verticalAlign=middle;whiteSpace=wrap;rounded=0;" vertex="1" parent="WIyWlLk6GJQsqaUBKTNV-1">
          <mxGeometry x="169" y="1440" width="230" height="40" as="geometry" />
        </mxCell>
        <mxCell id="G0NHZUbW1r4EHOkkA9tb-51" value="User press an eye button to see the password" style="rounded=1;whiteSpace=wrap;html=1;fontSize=12;glass=0;strokeWidth=1;shadow=0;" vertex="1" parent="WIyWlLk6GJQsqaUBKTNV-1">
          <mxGeometry x="99" y="1540" width="120" height="40" as="geometry" />
        </mxCell>
        <mxCell id="G0NHZUbW1r4EHOkkA9tb-52" value="User confirms new password" style="rounded=1;whiteSpace=wrap;html=1;fontSize=12;glass=0;strokeWidth=1;shadow=0;" vertex="1" parent="WIyWlLk6GJQsqaUBKTNV-1">
          <mxGeometry x="394" y="1330" width="120" height="40" as="geometry" />
        </mxCell>
        <mxCell id="G0NHZUbW1r4EHOkkA9tb-54" value="" style="endArrow=open;endFill=1;endSize=12;html=1;rounded=0;exitX=0.5;exitY=1;exitDx=0;exitDy=0;entryX=0;entryY=0.5;entryDx=0;entryDy=0;" edge="1" parent="WIyWlLk6GJQsqaUBKTNV-1" source="G0NHZUbW1r4EHOkkA9tb-45" target="G0NHZUbW1r4EHOkkA9tb-52">
          <mxGeometry width="160" relative="1" as="geometry">
            <mxPoint x="194" y="1300" as="sourcePoint" />
            <mxPoint x="194" y="1375" as="targetPoint" />
            <Array as="points">
              <mxPoint x="159" y="1350" />
            </Array>
          </mxGeometry>
        </mxCell>
        <mxCell id="G0NHZUbW1r4EHOkkA9tb-55" value="" style="endArrow=open;endFill=1;endSize=12;html=1;rounded=0;exitX=0.5;exitY=1;exitDx=0;exitDy=0;entryX=0.5;entryY=0;entryDx=0;entryDy=0;" edge="1" parent="WIyWlLk6GJQsqaUBKTNV-1" source="G0NHZUbW1r4EHOkkA9tb-52" target="G0NHZUbW1r4EHOkkA9tb-46">
          <mxGeometry width="160" relative="1" as="geometry">
            <mxPoint x="624" y="1350" as="sourcePoint" />
            <mxPoint x="624" y="1425" as="targetPoint" />
          </mxGeometry>
        </mxCell>
        <mxCell id="G0NHZUbW1r4EHOkkA9tb-56" value="User presses &quot;Change password&quot;" style="rounded=1;whiteSpace=wrap;html=1;fontSize=12;glass=0;strokeWidth=1;shadow=0;" vertex="1" parent="WIyWlLk6GJQsqaUBKTNV-1">
          <mxGeometry x="394" y="1620" width="120" height="40" as="geometry" />
        </mxCell>
        <mxCell id="G0NHZUbW1r4EHOkkA9tb-57" value="" style="rhombus;whiteSpace=wrap;html=1;shadow=0;fontFamily=Helvetica;fontSize=12;align=center;strokeWidth=1;spacing=6;spacingTop=-4;" vertex="1" parent="WIyWlLk6GJQsqaUBKTNV-1">
          <mxGeometry x="419" y="1754" width="70" height="70" as="geometry" />
        </mxCell>
        <mxCell id="G0NHZUbW1r4EHOkkA9tb-58" value="" style="endArrow=open;endFill=1;endSize=12;html=1;rounded=0;exitX=0.5;exitY=1;exitDx=0;exitDy=0;entryX=0.5;entryY=0;entryDx=0;entryDy=0;" edge="1" parent="WIyWlLk6GJQsqaUBKTNV-1" source="G0NHZUbW1r4EHOkkA9tb-57" target="G0NHZUbW1r4EHOkkA9tb-63">
          <mxGeometry width="160" relative="1" as="geometry">
            <mxPoint x="478" y="1874" as="sourcePoint" />
            <mxPoint x="454" y="1934" as="targetPoint" />
          </mxGeometry>
        </mxCell>
        <mxCell id="G0NHZUbW1r4EHOkkA9tb-59" value="&lt;font style=&quot;font-size: 11px;&quot;&gt;[everything is correct]&lt;/font&gt;" style="text;html=1;align=center;verticalAlign=middle;whiteSpace=wrap;rounded=0;" vertex="1" parent="WIyWlLk6GJQsqaUBKTNV-1">
          <mxGeometry x="339" y="1834" width="230" height="40" as="geometry" />
        </mxCell>
        <mxCell id="G0NHZUbW1r4EHOkkA9tb-60" value="" style="endArrow=open;endFill=1;endSize=12;html=1;rounded=0;exitX=1;exitY=0.5;exitDx=0;exitDy=0;entryX=0.5;entryY=0;entryDx=0;entryDy=0;" edge="1" parent="WIyWlLk6GJQsqaUBKTNV-1" source="G0NHZUbW1r4EHOkkA9tb-57" target="G0NHZUbW1r4EHOkkA9tb-62">
          <mxGeometry width="160" relative="1" as="geometry">
            <mxPoint x="14" y="1799" as="sourcePoint" />
            <mxPoint x="154" y="1789" as="targetPoint" />
            <Array as="points">
              <mxPoint x="694" y="1789" />
            </Array>
          </mxGeometry>
        </mxCell>
        <mxCell id="G0NHZUbW1r4EHOkkA9tb-61" value="&lt;font style=&quot;font-size: 11px;&quot;&gt;[something is incorrect]&lt;/font&gt;" style="text;html=1;align=center;verticalAlign=middle;whiteSpace=wrap;rounded=0;" vertex="1" parent="WIyWlLk6GJQsqaUBKTNV-1">
          <mxGeometry x="464" y="1754" width="230" height="40" as="geometry" />
        </mxCell>
        <mxCell id="G0NHZUbW1r4EHOkkA9tb-62" value="Error label is showed" style="rounded=1;whiteSpace=wrap;html=1;fontSize=12;glass=0;strokeWidth=1;shadow=0;" vertex="1" parent="WIyWlLk6GJQsqaUBKTNV-1">
          <mxGeometry x="634" y="1860" width="120" height="40" as="geometry" />
        </mxCell>
        <mxCell id="G0NHZUbW1r4EHOkkA9tb-63" value="Success label is showed" style="rounded=1;whiteSpace=wrap;html=1;fontSize=12;glass=0;strokeWidth=1;shadow=0;" vertex="1" parent="WIyWlLk6GJQsqaUBKTNV-1">
          <mxGeometry x="394" y="1960" width="120" height="40" as="geometry" />
        </mxCell>
        <mxCell id="G0NHZUbW1r4EHOkkA9tb-64" value="" style="endArrow=open;endFill=1;endSize=12;html=1;rounded=0;exitX=0.5;exitY=1;exitDx=0;exitDy=0;entryX=0.5;entryY=0;entryDx=0;entryDy=0;" edge="1" parent="WIyWlLk6GJQsqaUBKTNV-1" source="G0NHZUbW1r4EHOkkA9tb-63" target="G0NHZUbW1r4EHOkkA9tb-66">
          <mxGeometry width="160" relative="1" as="geometry">
            <mxPoint x="314" y="2060" as="sourcePoint" />
            <mxPoint x="454" y="2080" as="targetPoint" />
          </mxGeometry>
        </mxCell>
        <mxCell id="G0NHZUbW1r4EHOkkA9tb-66" value="" style="ellipse;whiteSpace=wrap;html=1;fillColor=#000000;" vertex="1" parent="WIyWlLk6GJQsqaUBKTNV-1">
          <mxGeometry x="424" y="2120" width="60" height="60" as="geometry" />
        </mxCell>
        <mxCell id="G0NHZUbW1r4EHOkkA9tb-67" value="" style="ellipse;whiteSpace=wrap;html=1;fillColor=#FFFFFF;strokeColor=#FFFFFF;" vertex="1" parent="WIyWlLk6GJQsqaUBKTNV-1">
          <mxGeometry x="429" y="2125" width="50" height="50" as="geometry" />
        </mxCell>
        <mxCell id="G0NHZUbW1r4EHOkkA9tb-71" value="" style="ellipse;whiteSpace=wrap;html=1;fillColor=#000000;strokeColor=#000000;" vertex="1" parent="WIyWlLk6GJQsqaUBKTNV-1">
          <mxGeometry x="434" y="2130" width="40" height="40" as="geometry" />
        </mxCell>
        <mxCell id="G0NHZUbW1r4EHOkkA9tb-72" value="" style="rhombus;whiteSpace=wrap;html=1;shadow=0;fontFamily=Helvetica;fontSize=12;align=center;strokeWidth=1;spacing=6;spacingTop=-4;" vertex="1" parent="WIyWlLk6GJQsqaUBKTNV-1">
          <mxGeometry x="419" y="590" width="70" height="70" as="geometry" />
        </mxCell>
        <mxCell id="G0NHZUbW1r4EHOkkA9tb-73" value="" style="endArrow=open;endFill=1;endSize=12;html=1;rounded=0;exitX=0.5;exitY=1;exitDx=0;exitDy=0;entryX=0.5;entryY=0;entryDx=0;entryDy=0;" edge="1" parent="WIyWlLk6GJQsqaUBKTNV-1" source="G0NHZUbW1r4EHOkkA9tb-72" target="G0NHZUbW1r4EHOkkA9tb-37">
          <mxGeometry width="160" relative="1" as="geometry">
            <mxPoint x="478" y="710" as="sourcePoint" />
            <mxPoint x="454" y="730" as="targetPoint" />
          </mxGeometry>
        </mxCell>
        <mxCell id="G0NHZUbW1r4EHOkkA9tb-74" value="&lt;font style=&quot;font-size: 11px;&quot;&gt;[user is sure he entered everything right]&lt;/font&gt;" style="text;html=1;align=center;verticalAlign=middle;whiteSpace=wrap;rounded=0;" vertex="1" parent="WIyWlLk6GJQsqaUBKTNV-1">
          <mxGeometry x="339" y="660" width="230" height="40" as="geometry" />
        </mxCell>
        <mxCell id="G0NHZUbW1r4EHOkkA9tb-75" value="" style="endArrow=open;endFill=1;endSize=12;html=1;rounded=0;exitX=1;exitY=0.5;exitDx=0;exitDy=0;entryX=0.5;entryY=0;entryDx=0;entryDy=0;" edge="1" parent="WIyWlLk6GJQsqaUBKTNV-1" source="G0NHZUbW1r4EHOkkA9tb-72" target="G0NHZUbW1r4EHOkkA9tb-77">
          <mxGeometry width="160" relative="1" as="geometry">
            <mxPoint x="884" y="365" as="sourcePoint" />
            <mxPoint x="619" y="365" as="targetPoint" />
            <Array as="points">
              <mxPoint x="674" y="625" />
            </Array>
          </mxGeometry>
        </mxCell>
        <mxCell id="G0NHZUbW1r4EHOkkA9tb-76" value="&lt;font style=&quot;font-size: 11px;&quot;&gt;[user is not sure he entered everything right]&lt;/font&gt;" style="text;html=1;align=center;verticalAlign=middle;whiteSpace=wrap;rounded=0;" vertex="1" parent="WIyWlLk6GJQsqaUBKTNV-1">
          <mxGeometry x="484" y="585" width="230" height="40" as="geometry" />
        </mxCell>
        <mxCell id="G0NHZUbW1r4EHOkkA9tb-77" value="User press an eye button to see the password" style="rounded=1;whiteSpace=wrap;html=1;fontSize=12;glass=0;strokeWidth=1;shadow=0;" vertex="1" parent="WIyWlLk6GJQsqaUBKTNV-1">
          <mxGeometry x="614" y="700" width="120" height="40" as="geometry" />
        </mxCell>
        <mxCell id="G0NHZUbW1r4EHOkkA9tb-80" value="User enters old password" style="rounded=1;whiteSpace=wrap;html=1;" vertex="1" parent="WIyWlLk6GJQsqaUBKTNV-1">
          <mxGeometry x="399" y="480" width="110" height="40" as="geometry" />
        </mxCell>
        <mxCell id="G0NHZUbW1r4EHOkkA9tb-81" value="" style="endArrow=open;endFill=1;endSize=12;html=1;rounded=0;exitX=0.5;exitY=1;exitDx=0;exitDy=0;entryX=0.5;entryY=0;entryDx=0;entryDy=0;" edge="1" parent="WIyWlLk6GJQsqaUBKTNV-1" source="G0NHZUbW1r4EHOkkA9tb-80" target="G0NHZUbW1r4EHOkkA9tb-72">
          <mxGeometry width="160" relative="1" as="geometry">
            <mxPoint x="453.5" y="540" as="sourcePoint" />
            <mxPoint x="454" y="600" as="targetPoint" />
          </mxGeometry>
        </mxCell>
        <mxCell id="G0NHZUbW1r4EHOkkA9tb-82" value="" style="endArrow=open;endFill=1;endSize=12;html=1;rounded=0;exitX=1;exitY=0.5;exitDx=0;exitDy=0;entryX=1;entryY=0.5;entryDx=0;entryDy=0;" edge="1" parent="WIyWlLk6GJQsqaUBKTNV-1" source="G0NHZUbW1r4EHOkkA9tb-62" target="G0NHZUbW1r4EHOkkA9tb-37">
          <mxGeometry width="160" relative="1" as="geometry">
            <mxPoint x="804" y="1727" as="sourcePoint" />
            <mxPoint x="814" y="1532" as="targetPoint" />
            <Array as="points">
              <mxPoint x="800" y="1880" />
              <mxPoint x="800" y="1025" />
            </Array>
          </mxGeometry>
        </mxCell>
      </root>
    </mxGraphModel>
  </diagram>
</mxfile>
